<mxfile host="Electron" modified="2023-09-08T18:59:27.405Z" agent="Mozilla/5.0 (Windows NT 10.0; Win64; x64) AppleWebKit/537.36 (KHTML, like Gecko) draw.io/21.6.8 Chrome/114.0.5735.289 Electron/25.5.0 Safari/537.36" etag="ny0i_eZnbTGQHpOppH6h" version="21.6.8" type="device">
  <diagram id="6a731a19-8d31-9384-78a2-239565b7b9f0" name="Page-1">
    <mxGraphModel dx="3200" dy="1549" grid="1" gridSize="10" guides="1" tooltips="1" connect="1" arrows="1" fold="1" page="1" pageScale="1" pageWidth="1169" pageHeight="827" background="none" math="0" shadow="0">
      <root>
        <mxCell id="0" />
        <mxCell id="1" parent="0" />
        <mxCell id="1350" value="Administrador" style="ellipse;whiteSpace=wrap;html=1;shadow=0;fontFamily=Helvetica;fontSize=20;fontColor=#FFFFFF;align=center;strokeWidth=3;fillColor=#1699D3;strokeColor=none;" parent="1" vertex="1">
          <mxGeometry x="405" y="680" width="120" height="120" as="geometry" />
        </mxCell>
        <mxCell id="1351" value="Auxiliar - asistente" style="ellipse;whiteSpace=wrap;html=1;shadow=0;fontFamily=Helvetica;fontSize=20;fontColor=#FFFFFF;align=center;strokeWidth=3;fillColor=#663300;strokeColor=none;gradientColor=none;" parent="1" vertex="1">
          <mxGeometry x="756.5" y="431.5" width="120" height="120" as="geometry" />
        </mxCell>
        <mxCell id="1352" value="Paciente" style="ellipse;whiteSpace=wrap;html=1;shadow=0;fontFamily=Helvetica;fontSize=20;fontColor=#FFFFFF;align=center;strokeWidth=3;fillColor=#802F24;strokeColor=none;" parent="1" vertex="1">
          <mxGeometry x="1735.5" y="373" width="120" height="120" as="geometry" />
        </mxCell>
        <mxCell id="1353" value="Familiar designado" style="ellipse;whiteSpace=wrap;html=1;shadow=0;fontFamily=Helvetica;fontSize=20;fontColor=#FFFFFF;align=center;strokeWidth=3;fillColor=#0E5E82;strokeColor=none;" parent="1" vertex="1">
          <mxGeometry x="1805.5" y="1018.5" width="120" height="120" as="geometry" />
        </mxCell>
        <mxCell id="1354" value="MÃ©dico" style="ellipse;whiteSpace=wrap;html=1;shadow=0;fontFamily=Helvetica;fontSize=20;fontColor=#FFFFFF;align=center;strokeWidth=3;fillColor=#34314D;strokeColor=none;" parent="1" vertex="1">
          <mxGeometry x="1252.5" y="1281.52" width="120" height="120" as="geometry" />
        </mxCell>
        <mxCell id="1355" value="Enfermera" style="ellipse;whiteSpace=wrap;html=1;shadow=0;fontFamily=Helvetica;fontSize=20;fontColor=#FFFFFF;align=center;strokeWidth=3;fillColor=#965503;strokeColor=none;" parent="1" vertex="1">
          <mxGeometry x="633" y="1270" width="120" height="120" as="geometry" />
        </mxCell>
        <mxCell id="1359" style="endArrow=none;strokeWidth=6;strokeColor=#1699D3;html=1;" parent="1" source="1515" target="1350" edge="1">
          <mxGeometry relative="1" as="geometry" />
        </mxCell>
        <mxCell id="1360" style="endArrow=none;strokeWidth=6;strokeColor=#f08705;html=1;fillColor=#663300;" parent="1" source="1515" target="1351" edge="1">
          <mxGeometry relative="1" as="geometry" />
        </mxCell>
        <mxCell id="1361" style="endArrow=none;strokeWidth=6;strokeColor=#E85642;html=1;" parent="1" source="1515" target="1352" edge="1">
          <mxGeometry relative="1" as="geometry" />
        </mxCell>
        <mxCell id="1362" style="endArrow=none;strokeWidth=6;strokeColor=#1699D3;html=1;" parent="1" source="1515" target="1353" edge="1">
          <mxGeometry relative="1" as="geometry" />
        </mxCell>
        <mxCell id="1363" style="endArrow=none;strokeWidth=6;strokeColor=#736CA8;html=1;" parent="1" source="1515" target="1516" edge="1">
          <mxGeometry relative="1" as="geometry" />
        </mxCell>
        <mxCell id="1364" style="endArrow=none;strokeWidth=6;strokeColor=#736ca8;html=1;" parent="1" target="1354" edge="1">
          <mxGeometry relative="1" as="geometry">
            <mxPoint x="1101.175368739102" y="959.9950874802321" as="sourcePoint" />
          </mxGeometry>
        </mxCell>
        <mxCell id="1365" value="" style="edgeStyle=none;endArrow=none;strokeWidth=6;strokeColor=#F08705;html=1;" parent="1" source="1515" target="1355" edge="1">
          <mxGeometry x="181" y="226.5" width="100" height="100" as="geometry">
            <mxPoint x="154" y="406.5" as="sourcePoint" />
            <mxPoint x="254" y="306.5" as="targetPoint" />
          </mxGeometry>
        </mxCell>
        <mxCell id="1372" value="Donkey" style="rounded=1;fillColor=#64BBE2;strokeColor=none;strokeWidth=3;shadow=0;html=1;fontColor=#FFFFFF;" parent="1" vertex="1">
          <mxGeometry x="240" y="720" width="130" height="40" as="geometry" />
        </mxCell>
        <mxCell id="1384" value="" style="edgeStyle=none;endArrow=none;strokeWidth=3;strokeColor=#64BBE2;html=1;" parent="1" source="1350" target="1372" edge="1">
          <mxGeometry x="-221.5" y="56.5" width="100" height="100" as="geometry">
            <mxPoint x="-340" y="565" as="sourcePoint" />
            <mxPoint x="-240" y="465" as="targetPoint" />
          </mxGeometry>
        </mxCell>
        <mxCell id="1402" value="" style="edgeStyle=none;endArrow=none;strokeWidth=3;strokeColor=#F5AF58;html=1;entryX=1;entryY=0.5;entryDx=0;entryDy=0;" parent="1" source="1351" target="Ss06lq52ahwoIGu85zXp-1554" edge="1">
          <mxGeometry x="3.5" y="21.5" width="100" height="100" as="geometry">
            <mxPoint x="-343.5" y="311.5" as="sourcePoint" />
            <mxPoint x="681.5" y="431.5000000000002" as="targetPoint" />
          </mxGeometry>
        </mxCell>
        <mxCell id="1404" value="" style="edgeStyle=none;endArrow=none;strokeWidth=3;strokeColor=#F5AF58;html=1;entryX=0.5;entryY=1;entryDx=0;entryDy=0;" parent="1" source="1351" target="Ss06lq52ahwoIGu85zXp-1548" edge="1">
          <mxGeometry x="3.5" y="21.5" width="100" height="100" as="geometry">
            <mxPoint x="-343.5" y="311.5" as="sourcePoint" />
            <mxPoint x="753" y="360" as="targetPoint" />
          </mxGeometry>
        </mxCell>
        <mxCell id="1405" value="" style="edgeStyle=none;endArrow=none;strokeWidth=3;strokeColor=#F5AF58;html=1;entryX=0.5;entryY=1;entryDx=0;entryDy=0;" parent="1" source="1351" target="Ss06lq52ahwoIGu85zXp-1550" edge="1">
          <mxGeometry x="3.5" y="21.5" width="100" height="100" as="geometry">
            <mxPoint x="-343.5" y="311.5" as="sourcePoint" />
            <mxPoint x="883" y="360" as="targetPoint" />
          </mxGeometry>
        </mxCell>
        <mxCell id="1407" value="" style="edgeStyle=none;endArrow=none;strokeWidth=3;strokeColor=#F5AF58;html=1;entryX=0;entryY=0.5;entryDx=0;entryDy=0;" parent="1" source="1351" target="Ss06lq52ahwoIGu85zXp-1553" edge="1">
          <mxGeometry x="3.5" y="21.5" width="100" height="100" as="geometry">
            <mxPoint x="-343.5" y="311.5" as="sourcePoint" />
            <mxPoint x="948.5" y="436.5000000000002" as="targetPoint" />
          </mxGeometry>
        </mxCell>
        <mxCell id="1412" value="Ver (GET)" style="rounded=1;fillColor=#f08e81;strokeColor=none;strokeWidth=3;shadow=0;html=1;fontColor=#FFFFFF;" parent="1" vertex="1">
          <mxGeometry x="1955.5" y="298" width="120" height="40" as="geometry" />
        </mxCell>
        <mxCell id="1427" value="" style="edgeStyle=none;endArrow=none;strokeWidth=3;strokeColor=#F08E81;html=1;entryX=0.5;entryY=1;entryDx=0;entryDy=0;exitX=0;exitY=0;exitDx=0;exitDy=0;" parent="1" source="1352" target="Ss06lq52ahwoIGu85zXp-1564" edge="1">
          <mxGeometry x="31" y="106.5" width="100" height="100" as="geometry">
            <mxPoint x="1734.5" y="376.5" as="sourcePoint" />
            <mxPoint x="1733.5" y="278.0000000000002" as="targetPoint" />
          </mxGeometry>
        </mxCell>
        <mxCell id="1428" value="" style="edgeStyle=none;endArrow=none;strokeWidth=3;strokeColor=#F08E81;html=1;exitX=0.5;exitY=0;exitDx=0;exitDy=0;entryX=0.5;entryY=1;entryDx=0;entryDy=0;" parent="1" source="Ss06lq52ahwoIGu85zXp-1564" target="1417" edge="1">
          <mxGeometry x="31" y="106.5" width="100" height="100" as="geometry">
            <mxPoint x="55.5" y="223" as="sourcePoint" />
            <mxPoint x="1834.5" y="236.5" as="targetPoint" />
          </mxGeometry>
        </mxCell>
        <mxCell id="1429" value="" style="edgeStyle=none;endArrow=none;strokeWidth=3;strokeColor=#F08E81;html=1;entryX=0.5;entryY=1;entryDx=0;entryDy=0;exitX=0.5;exitY=0;exitDx=0;exitDy=0;" parent="1" source="Ss06lq52ahwoIGu85zXp-1568" target="1418" edge="1">
          <mxGeometry x="31" y="106.5" width="100" height="100" as="geometry">
            <mxPoint x="1894.5" y="196.5" as="sourcePoint" />
            <mxPoint x="1874.5" y="266.5" as="targetPoint" />
          </mxGeometry>
        </mxCell>
        <mxCell id="1430" value="" style="edgeStyle=none;endArrow=none;strokeWidth=3;strokeColor=#F08E81;html=1;exitX=1;exitY=0;exitDx=0;exitDy=0;entryX=0.5;entryY=1;entryDx=0;entryDy=0;" parent="1" source="1352" target="Ss06lq52ahwoIGu85zXp-1568" edge="1">
          <mxGeometry x="31" y="106.5" width="100" height="100" as="geometry">
            <mxPoint x="65.5" y="223" as="sourcePoint" />
            <mxPoint x="165.5" y="123" as="targetPoint" />
          </mxGeometry>
        </mxCell>
        <mxCell id="1431" value="" style="edgeStyle=none;endArrow=none;strokeWidth=3;strokeColor=#F08E81;html=1;exitX=1;exitY=0;exitDx=0;exitDy=0;entryX=0.5;entryY=1;entryDx=0;entryDy=0;" parent="1" source="Ss06lq52ahwoIGu85zXp-1569" target="1412" edge="1">
          <mxGeometry x="31" y="106.5" width="100" height="100" as="geometry">
            <mxPoint x="2074.5" y="476.5" as="sourcePoint" />
            <mxPoint x="165.5" y="123" as="targetPoint" />
          </mxGeometry>
        </mxCell>
        <mxCell id="1437" value="Ver (GET)" style="rounded=1;fillColor=#64BBE2;strokeColor=none;strokeWidth=3;shadow=0;html=1;fontColor=#FFFFFF;" parent="1" vertex="1">
          <mxGeometry x="1807" y="800" width="120" height="40" as="geometry" />
        </mxCell>
        <mxCell id="1441" value="Actualizar (PATCH)" style="rounded=1;fillColor=#64BBE2;strokeColor=none;strokeWidth=3;shadow=0;html=1;fontColor=#FFFFFF;" parent="1" vertex="1">
          <mxGeometry x="2105.5" y="1058.5" width="120" height="40" as="geometry" />
        </mxCell>
        <mxCell id="1448" value="" style="edgeStyle=none;endArrow=none;strokeWidth=3;strokeColor=#64BBE2;html=1;exitX=0.5;exitY=0;exitDx=0;exitDy=0;" parent="1" source="Ss06lq52ahwoIGu85zXp-1598" target="1437" edge="1">
          <mxGeometry x="-24" y="196.5" width="100" height="100" as="geometry">
            <mxPoint x="1815.5" y="700" as="sourcePoint" />
            <mxPoint x="-114.5" y="120" as="targetPoint" />
          </mxGeometry>
        </mxCell>
        <mxCell id="1449" value="" style="edgeStyle=none;endArrow=none;strokeWidth=3;strokeColor=#64BBE2;html=1;entryX=0.5;entryY=1;entryDx=0;entryDy=0;exitX=0.5;exitY=0;exitDx=0;exitDy=0;" parent="1" source="1353" target="Ss06lq52ahwoIGu85zXp-1598" edge="1">
          <mxGeometry x="-24" y="196.5" width="100" height="100" as="geometry">
            <mxPoint x="-154.5" y="508.5" as="sourcePoint" />
            <mxPoint x="1605.5" y="828.5" as="targetPoint" />
          </mxGeometry>
        </mxCell>
        <mxCell id="1452" value="" style="edgeStyle=none;endArrow=none;strokeWidth=3;strokeColor=#64BBE2;html=1;exitX=1;exitY=0.5;exitDx=0;exitDy=0;entryX=0;entryY=0.5;entryDx=0;entryDy=0;" parent="1" source="1353" target="Ss06lq52ahwoIGu85zXp-1599" edge="1">
          <mxGeometry x="-24" y="196.5" width="100" height="100" as="geometry">
            <mxPoint x="-154.5" y="508.5" as="sourcePoint" />
            <mxPoint x="2050.5" y="1097.3775510204082" as="targetPoint" />
          </mxGeometry>
        </mxCell>
        <mxCell id="1453" value="" style="edgeStyle=none;endArrow=none;strokeWidth=3;strokeColor=#64BBE2;html=1;exitX=1;exitY=0.5;exitDx=0;exitDy=0;entryX=0;entryY=0.5;entryDx=0;entryDy=0;" parent="1" source="Ss06lq52ahwoIGu85zXp-1599" target="1441" edge="1">
          <mxGeometry x="-24" y="196.5" width="100" height="100" as="geometry">
            <mxPoint x="-154.5" y="508.5" as="sourcePoint" />
            <mxPoint x="-54.5" y="408.5" as="targetPoint" />
          </mxGeometry>
        </mxCell>
        <mxCell id="1458" value="Enviar sugerencias a familiar" style="rounded=1;fillColor=#a29dc5;strokeColor=none;strokeWidth=3;shadow=0;html=1;fontColor=#FFFFFF;" parent="1" vertex="1">
          <mxGeometry x="1400" y="1205.27" width="120" height="40" as="geometry" />
        </mxCell>
        <mxCell id="1461" value="Registrar (POST)" style="rounded=1;fillColor=#a29dc5;strokeColor=none;strokeWidth=3;shadow=0;html=1;fontColor=#FFFFFF;" parent="1" vertex="1">
          <mxGeometry x="1252.5" y="1587.27" width="120" height="40" as="geometry" />
        </mxCell>
        <mxCell id="1463" value="" style="edgeStyle=none;endArrow=none;strokeWidth=3;strokeColor=#A29DC5;html=1;exitX=1;exitY=0.5;exitDx=0;exitDy=0;entryX=0;entryY=0.5;entryDx=0;entryDy=0;" parent="1" source="Ss06lq52ahwoIGu85zXp-1602" target="Ss06lq52ahwoIGu85zXp-1612" edge="1">
          <mxGeometry x="251" y="-103.5" width="100" height="100" as="geometry">
            <mxPoint x="-207.5" y="106.52000000000001" as="sourcePoint" />
            <mxPoint x="1480" y="1153.77" as="targetPoint" />
          </mxGeometry>
        </mxCell>
        <mxCell id="1464" value="" style="edgeStyle=none;endArrow=none;strokeWidth=3;strokeColor=#A29DC5;html=1;exitX=0.5;exitY=1;exitDx=0;exitDy=0;entryX=0.5;entryY=0;entryDx=0;entryDy=0;" parent="1" source="1354" target="Ss06lq52ahwoIGu85zXp-1600" edge="1">
          <mxGeometry x="251" y="-103.5" width="100" height="100" as="geometry">
            <mxPoint x="-207.5" y="106.52000000000001" as="sourcePoint" />
            <mxPoint x="-107.5" y="6.520000000000003" as="targetPoint" />
          </mxGeometry>
        </mxCell>
        <mxCell id="1465" value="" style="edgeStyle=none;endArrow=none;strokeWidth=3;strokeColor=#A29DC5;html=1;exitX=0.5;exitY=0;exitDx=0;exitDy=0;entryX=0.5;entryY=1;entryDx=0;entryDy=0;" parent="1" source="Ss06lq52ahwoIGu85zXp-1602" target="1458" edge="1">
          <mxGeometry x="251" y="-103.5" width="100" height="100" as="geometry">
            <mxPoint x="-207.5" y="106.52000000000001" as="sourcePoint" />
            <mxPoint x="-107.5" y="6.520000000000003" as="targetPoint" />
          </mxGeometry>
        </mxCell>
        <mxCell id="1467" value="" style="edgeStyle=none;endArrow=none;strokeWidth=3;strokeColor=#A29DC5;html=1;entryX=0;entryY=0.5;entryDx=0;entryDy=0;" parent="1" source="1354" target="Ss06lq52ahwoIGu85zXp-1602" edge="1">
          <mxGeometry x="251" y="-103.5" width="100" height="100" as="geometry">
            <mxPoint x="-207.5" y="106.52000000000001" as="sourcePoint" />
            <mxPoint x="1681.5" y="1349.2612587412586" as="targetPoint" />
          </mxGeometry>
        </mxCell>
        <mxCell id="1472" value="Mushroom" style="rounded=1;fillColor=#f5af58;strokeColor=none;strokeWidth=3;shadow=0;html=1;fontColor=#FFFFFF;" parent="1" vertex="1">
          <mxGeometry x="633" y="1421" width="120" height="40" as="geometry" />
        </mxCell>
        <mxCell id="1484" value="" style="edgeStyle=none;endArrow=none;strokeWidth=3;strokeColor=#F5AF58;html=1;" parent="1" source="1355" target="1472" edge="1">
          <mxGeometry x="243.5" y="39" width="100" height="100" as="geometry">
            <mxPoint x="-287" y="100" as="sourcePoint" />
            <mxPoint x="-187" as="targetPoint" />
          </mxGeometry>
        </mxCell>
        <mxCell id="1514" style="edgeStyle=orthogonalEdgeStyle;rounded=0;html=1;exitX=0.75;exitY=0;entryX=0.75;entryY=0;startArrow=none;startFill=0;endArrow=block;endFill=1;jettySize=auto;orthogonalLoop=1;strokeColor=#12aab5;strokeWidth=6;fontSize=20;fontColor=#2F5B7C;" parent="1" edge="1">
          <mxGeometry relative="1" as="geometry">
            <mxPoint x="1645.5" y="388.0000000000002" as="sourcePoint" />
            <mxPoint x="1645.5" y="388.0000000000002" as="targetPoint" />
          </mxGeometry>
        </mxCell>
        <mxCell id="1515" value="Vistas - Front" style="ellipse;whiteSpace=wrap;html=1;shadow=0;fontFamily=Helvetica;fontSize=30;fontColor=#2F5B7C;align=center;strokeColor=#2F5B7C;strokeWidth=6;fillColor=#FFFFFF;fontStyle=1;gradientColor=none;" parent="1" vertex="1">
          <mxGeometry x="934" y="756.5" width="270" height="270" as="geometry" />
        </mxCell>
        <mxCell id="1516" value="Usuario" style="ellipse;whiteSpace=wrap;html=1;shadow=0;fontFamily=Helvetica;fontSize=20;fontColor=#FFFFFF;align=center;strokeWidth=3;fillColor=#736ca8;strokeColor=none;" parent="1" vertex="1">
          <mxGeometry x="405" y="1081.5" width="120" height="120" as="geometry" />
        </mxCell>
        <mxCell id="1518" value="Registro (POST)" style="rounded=1;fillColor=#a29dc5;strokeColor=none;strokeWidth=3;shadow=0;html=1;fontColor=#FFFFFF;" parent="1" vertex="1">
          <mxGeometry x="405" y="1010" width="120" height="40" as="geometry" />
        </mxCell>
        <mxCell id="1530" value="" style="edgeStyle=none;endArrow=none;strokeWidth=3;strokeColor=#A29DC5;html=1;" parent="1" source="1516" target="1518" edge="1">
          <mxGeometry x="-1498" y="-303.5" width="100" height="100" as="geometry">
            <mxPoint x="-1405" y="156.5" as="sourcePoint" />
            <mxPoint x="-1305" y="56.5" as="targetPoint" />
          </mxGeometry>
        </mxCell>
        <mxCell id="1531" value="" style="edgeStyle=none;endArrow=none;strokeWidth=3;strokeColor=#A29DC5;html=1;entryX=1;entryY=0.5;entryDx=0;entryDy=0;" parent="1" source="1516" target="Ss06lq52ahwoIGu85zXp-1625" edge="1">
          <mxGeometry x="-1498" y="-303.5" width="100" height="100" as="geometry">
            <mxPoint x="-1405" y="156.5" as="sourcePoint" />
            <mxPoint x="588.0263157894733" y="971.5" as="targetPoint" />
          </mxGeometry>
        </mxCell>
        <mxCell id="1541" value="" style="edgeStyle=none;endArrow=none;strokeWidth=3;strokeColor=#A29DC5;html=1;exitX=0.5;exitY=0;exitDx=0;exitDy=0;entryX=0.5;entryY=1;entryDx=0;entryDy=0;" parent="1" source="1354" target="Ss06lq52ahwoIGu85zXp-1601" edge="1">
          <mxGeometry x="-1174" y="-408.5" width="100" height="100" as="geometry">
            <mxPoint x="-1632.5" y="-198.48" as="sourcePoint" />
            <mxPoint x="1384.038461538462" y="1264.02" as="targetPoint" />
          </mxGeometry>
        </mxCell>
        <mxCell id="Ss06lq52ahwoIGu85zXp-1544" value="" style="edgeStyle=none;endArrow=none;strokeWidth=3;strokeColor=#F5AF58;html=1;entryX=0.5;entryY=1;entryDx=0;entryDy=0;exitX=0.5;exitY=0;exitDx=0;exitDy=0;" edge="1" parent="1" source="Ss06lq52ahwoIGu85zXp-1548" target="Ss06lq52ahwoIGu85zXp-1545">
          <mxGeometry x="3.5" y="21.5" width="100" height="100" as="geometry">
            <mxPoint x="717" y="230" as="sourcePoint" />
            <mxPoint x="616.5" y="130" as="targetPoint" />
          </mxGeometry>
        </mxCell>
        <mxCell id="Ss06lq52ahwoIGu85zXp-1545" value="Registrar (POST)" style="rounded=1;fillColor=#f5af58;strokeColor=none;strokeWidth=3;shadow=0;html=1;fontColor=#FFFFFF;" vertex="1" parent="1">
          <mxGeometry x="661.25" y="170" width="123.5" height="40" as="geometry" />
        </mxCell>
        <mxCell id="Ss06lq52ahwoIGu85zXp-1546" value="Consultar (GET)" style="rounded=1;fillColor=#f5af58;strokeColor=none;strokeWidth=3;shadow=0;html=1;fontColor=#FFFFFF;" vertex="1" parent="1">
          <mxGeometry x="513" y="271.5" width="120" height="40" as="geometry" />
        </mxCell>
        <mxCell id="Ss06lq52ahwoIGu85zXp-1547" value="" style="edgeStyle=none;endArrow=none;strokeWidth=3;strokeColor=#F5AF58;html=1;entryX=1;entryY=0.5;entryDx=0;entryDy=0;exitX=0;exitY=0.5;exitDx=0;exitDy=0;" edge="1" parent="1" source="Ss06lq52ahwoIGu85zXp-1548" target="Ss06lq52ahwoIGu85zXp-1546">
          <mxGeometry x="3.5" y="21.5" width="100" height="100" as="geometry">
            <mxPoint x="683" y="240" as="sourcePoint" />
            <mxPoint x="623" y="230" as="targetPoint" />
          </mxGeometry>
        </mxCell>
        <mxCell id="Ss06lq52ahwoIGu85zXp-1548" value="Paciente" style="ellipse;whiteSpace=wrap;html=1;shadow=0;fontFamily=Helvetica;fontSize=20;fontColor=#FFFFFF;align=center;strokeWidth=3;fillColor=#F08705;strokeColor=none;gradientColor=none;" vertex="1" parent="1">
          <mxGeometry x="663" y="231.5" width="120" height="120" as="geometry" />
        </mxCell>
        <mxCell id="Ss06lq52ahwoIGu85zXp-1550" value="Familiar" style="ellipse;whiteSpace=wrap;html=1;shadow=0;fontFamily=Helvetica;fontSize=20;fontColor=#FFFFFF;align=center;strokeWidth=3;fillColor=#F08705;strokeColor=none;gradientColor=none;" vertex="1" parent="1">
          <mxGeometry x="831.5" y="231.5" width="120" height="120" as="geometry" />
        </mxCell>
        <mxCell id="Ss06lq52ahwoIGu85zXp-1551" value="Registrar (POST)" style="rounded=1;fillColor=#f5af58;strokeColor=none;strokeWidth=3;shadow=0;html=1;fontColor=#FFFFFF;" vertex="1" parent="1">
          <mxGeometry x="829.75" y="170" width="123.5" height="40" as="geometry" />
        </mxCell>
        <mxCell id="Ss06lq52ahwoIGu85zXp-1552" value="" style="edgeStyle=none;endArrow=none;strokeWidth=3;strokeColor=#F5AF58;html=1;entryX=0.5;entryY=1;entryDx=0;entryDy=0;exitX=0.5;exitY=0;exitDx=0;exitDy=0;" edge="1" parent="1" source="Ss06lq52ahwoIGu85zXp-1550" target="Ss06lq52ahwoIGu85zXp-1551">
          <mxGeometry x="3.5" y="21.5" width="100" height="100" as="geometry">
            <mxPoint x="733" y="141" as="sourcePoint" />
            <mxPoint x="733" y="119" as="targetPoint" />
          </mxGeometry>
        </mxCell>
        <mxCell id="Ss06lq52ahwoIGu85zXp-1553" value="Enfermera" style="ellipse;whiteSpace=wrap;html=1;shadow=0;fontFamily=Helvetica;fontSize=20;fontColor=#FFFFFF;align=center;strokeWidth=3;fillColor=#F08705;strokeColor=none;gradientColor=none;" vertex="1" parent="1">
          <mxGeometry x="906.5" y="371.5" width="120" height="120" as="geometry" />
        </mxCell>
        <mxCell id="Ss06lq52ahwoIGu85zXp-1554" value="MÃ©dico" style="ellipse;whiteSpace=wrap;html=1;shadow=0;fontFamily=Helvetica;fontSize=20;fontColor=#FFFFFF;align=center;strokeWidth=3;fillColor=#F08705;strokeColor=none;gradientColor=none;" vertex="1" parent="1">
          <mxGeometry x="603" y="371.5" width="120" height="120" as="geometry" />
        </mxCell>
        <mxCell id="Ss06lq52ahwoIGu85zXp-1555" value="Registrar (POST)" style="rounded=1;fillColor=#f5af58;strokeColor=none;strokeWidth=3;shadow=0;html=1;fontColor=#FFFFFF;" vertex="1" parent="1">
          <mxGeometry x="453" y="351.5" width="123.5" height="40" as="geometry" />
        </mxCell>
        <mxCell id="Ss06lq52ahwoIGu85zXp-1556" value="" style="edgeStyle=none;endArrow=none;strokeWidth=3;strokeColor=#F5AF58;html=1;exitX=0;exitY=0;exitDx=0;exitDy=0;entryX=1;entryY=0.5;entryDx=0;entryDy=0;" edge="1" parent="1" source="Ss06lq52ahwoIGu85zXp-1554" target="Ss06lq52ahwoIGu85zXp-1555">
          <mxGeometry x="3.5" y="21.5" width="100" height="100" as="geometry">
            <mxPoint x="536.5" y="401.5" as="sourcePoint" />
            <mxPoint x="496.5" y="351.5" as="targetPoint" />
          </mxGeometry>
        </mxCell>
        <mxCell id="Ss06lq52ahwoIGu85zXp-1558" value="Asisgnar a MÃDICO A PACIENTE" style="rounded=1;fillColor=#f5af58;strokeColor=none;strokeWidth=3;shadow=0;html=1;fontColor=#FFFFFF;" vertex="1" parent="1">
          <mxGeometry x="453" y="420" width="123.5" height="40" as="geometry" />
        </mxCell>
        <mxCell id="Ss06lq52ahwoIGu85zXp-1559" value="" style="edgeStyle=none;endArrow=none;strokeWidth=3;strokeColor=#F5AF58;html=1;exitX=0;exitY=0.5;exitDx=0;exitDy=0;entryX=1;entryY=0.5;entryDx=0;entryDy=0;" edge="1" parent="1" source="Ss06lq52ahwoIGu85zXp-1554" target="Ss06lq52ahwoIGu85zXp-1558">
          <mxGeometry x="3.5" y="21.5" width="100" height="100" as="geometry">
            <mxPoint x="631" y="493" as="sourcePoint" />
            <mxPoint x="587" y="476" as="targetPoint" />
          </mxGeometry>
        </mxCell>
        <mxCell id="Ss06lq52ahwoIGu85zXp-1560" value="Registrar (POST)" style="rounded=1;fillColor=#f5af58;strokeColor=none;strokeWidth=3;shadow=0;html=1;fontColor=#FFFFFF;" vertex="1" parent="1">
          <mxGeometry x="1056.5" y="356.5" width="123.5" height="40" as="geometry" />
        </mxCell>
        <mxCell id="Ss06lq52ahwoIGu85zXp-1561" value="Asisgnar a ENFERMERA A PACIENTE" style="rounded=1;fillColor=#f5af58;strokeColor=none;strokeWidth=3;shadow=0;html=1;fontColor=#FFFFFF;" vertex="1" parent="1">
          <mxGeometry x="1056.5" y="420" width="123.5" height="40" as="geometry" />
        </mxCell>
        <mxCell id="Ss06lq52ahwoIGu85zXp-1562" value="" style="edgeStyle=none;endArrow=none;strokeWidth=3;strokeColor=#F5AF58;html=1;entryX=0;entryY=0.5;entryDx=0;entryDy=0;exitX=1;exitY=0;exitDx=0;exitDy=0;" edge="1" parent="1" source="Ss06lq52ahwoIGu85zXp-1553" target="Ss06lq52ahwoIGu85zXp-1560">
          <mxGeometry x="3.5" y="21.5" width="100" height="100" as="geometry">
            <mxPoint x="876" y="468" as="sourcePoint" />
            <mxPoint x="916" y="442" as="targetPoint" />
          </mxGeometry>
        </mxCell>
        <mxCell id="Ss06lq52ahwoIGu85zXp-1563" value="" style="edgeStyle=none;endArrow=none;strokeWidth=3;strokeColor=#F5AF58;html=1;entryX=0;entryY=0.5;entryDx=0;entryDy=0;exitX=1;exitY=0.5;exitDx=0;exitDy=0;" edge="1" parent="1" source="Ss06lq52ahwoIGu85zXp-1553" target="Ss06lq52ahwoIGu85zXp-1561">
          <mxGeometry x="3.5" y="21.5" width="100" height="100" as="geometry">
            <mxPoint x="1019" y="399" as="sourcePoint" />
            <mxPoint x="1073" y="330" as="targetPoint" />
          </mxGeometry>
        </mxCell>
        <mxCell id="Ss06lq52ahwoIGu85zXp-1569" value="Historia clÃ­nica" style="ellipse;whiteSpace=wrap;html=1;shadow=0;fontFamily=Helvetica;fontSize=20;fontColor=#FFFFFF;align=center;strokeWidth=3;fillColor=#E85642;strokeColor=none;" vertex="1" parent="1">
          <mxGeometry x="1874.5" y="373" width="120" height="120" as="geometry" />
        </mxCell>
        <mxCell id="Ss06lq52ahwoIGu85zXp-1570" value="" style="edgeStyle=none;endArrow=none;strokeWidth=3;strokeColor=#F08E81;html=1;exitX=1;exitY=0.5;exitDx=0;exitDy=0;entryX=0;entryY=0.5;entryDx=0;entryDy=0;" edge="1" parent="1" source="1352" target="Ss06lq52ahwoIGu85zXp-1569">
          <mxGeometry x="31" y="106.5" width="100" height="100" as="geometry">
            <mxPoint x="2084.5" y="486.5" as="sourcePoint" />
            <mxPoint x="2122.5" y="426.5" as="targetPoint" />
          </mxGeometry>
        </mxCell>
        <mxCell id="Ss06lq52ahwoIGu85zXp-1571" value="DiagnÃ³stico" style="ellipse;whiteSpace=wrap;html=1;shadow=0;fontFamily=Helvetica;fontSize=20;fontColor=#FFFFFF;align=center;strokeWidth=3;fillColor=#E85642;strokeColor=none;" vertex="1" parent="1">
          <mxGeometry x="1804.5" y="538" width="120" height="120" as="geometry" />
        </mxCell>
        <mxCell id="Ss06lq52ahwoIGu85zXp-1572" value="" style="edgeStyle=none;endArrow=none;strokeWidth=3;strokeColor=#F08E81;html=1;exitX=1;exitY=1;exitDx=0;exitDy=0;entryX=0.5;entryY=0;entryDx=0;entryDy=0;" edge="1" parent="1" source="1352" target="Ss06lq52ahwoIGu85zXp-1571">
          <mxGeometry x="31" y="106.5" width="100" height="100" as="geometry">
            <mxPoint x="1986.5" y="400.5" as="sourcePoint" />
            <mxPoint x="2025.5" y="348.5" as="targetPoint" />
          </mxGeometry>
        </mxCell>
        <mxCell id="Ss06lq52ahwoIGu85zXp-1573" value="Ver (GET)" style="rounded=1;fillColor=#f08e81;strokeColor=none;strokeWidth=3;shadow=0;html=1;fontColor=#FFFFFF;" vertex="1" parent="1">
          <mxGeometry x="1804.5" y="678" width="120" height="40" as="geometry" />
        </mxCell>
        <mxCell id="Ss06lq52ahwoIGu85zXp-1574" value="" style="edgeStyle=none;endArrow=none;strokeWidth=3;strokeColor=#F08E81;html=1;exitX=0.5;exitY=1;exitDx=0;exitDy=0;entryX=0.5;entryY=0;entryDx=0;entryDy=0;" edge="1" parent="1" source="Ss06lq52ahwoIGu85zXp-1571" target="Ss06lq52ahwoIGu85zXp-1573">
          <mxGeometry x="31" y="106.5" width="100" height="100" as="geometry">
            <mxPoint x="1986.5" y="400.5" as="sourcePoint" />
            <mxPoint x="2025.5" y="348.5" as="targetPoint" />
          </mxGeometry>
        </mxCell>
        <mxCell id="Ss06lq52ahwoIGu85zXp-1576" value="Signos vitales" style="ellipse;whiteSpace=wrap;html=1;shadow=0;fontFamily=Helvetica;fontSize=20;fontColor=#FFFFFF;align=center;strokeWidth=3;fillColor=#E85642;strokeColor=none;" vertex="1" parent="1">
          <mxGeometry x="1665.5" y="538" width="120" height="120" as="geometry" />
        </mxCell>
        <mxCell id="Ss06lq52ahwoIGu85zXp-1577" value="" style="edgeStyle=none;endArrow=none;strokeWidth=3;strokeColor=#F08E81;html=1;exitX=0;exitY=1;exitDx=0;exitDy=0;entryX=0.5;entryY=0;entryDx=0;entryDy=0;" edge="1" parent="1" target="Ss06lq52ahwoIGu85zXp-1576" source="1352">
          <mxGeometry x="31" y="106.5" width="100" height="100" as="geometry">
            <mxPoint x="1698.5" y="475.5" as="sourcePoint" />
            <mxPoint x="1886.5" y="348.5" as="targetPoint" />
          </mxGeometry>
        </mxCell>
        <mxCell id="Ss06lq52ahwoIGu85zXp-1578" value="Ver (GET)" style="rounded=1;fillColor=#f08e81;strokeColor=none;strokeWidth=3;shadow=0;html=1;fontColor=#FFFFFF;" vertex="1" parent="1">
          <mxGeometry x="1665.5" y="678" width="120" height="40" as="geometry" />
        </mxCell>
        <mxCell id="Ss06lq52ahwoIGu85zXp-1579" value="" style="edgeStyle=none;endArrow=none;strokeWidth=3;strokeColor=#F08E81;html=1;exitX=0.5;exitY=1;exitDx=0;exitDy=0;entryX=0.5;entryY=0;entryDx=0;entryDy=0;" edge="1" parent="1" source="Ss06lq52ahwoIGu85zXp-1576" target="Ss06lq52ahwoIGu85zXp-1578">
          <mxGeometry x="31" y="106.5" width="100" height="100" as="geometry">
            <mxPoint x="1847.5" y="400.5" as="sourcePoint" />
            <mxPoint x="1886.5" y="348.5" as="targetPoint" />
          </mxGeometry>
        </mxCell>
        <mxCell id="Ss06lq52ahwoIGu85zXp-1583" value="Ver (GET)" style="rounded=1;fillColor=#f08e81;strokeColor=none;strokeWidth=3;shadow=0;html=1;fontColor=#FFFFFF;" vertex="1" parent="1">
          <mxGeometry x="1513" y="298" width="120" height="40" as="geometry" />
        </mxCell>
        <mxCell id="Ss06lq52ahwoIGu85zXp-1585" value="" style="edgeStyle=none;endArrow=none;strokeWidth=3;strokeColor=#F08E81;html=1;exitX=0;exitY=0;exitDx=0;exitDy=0;entryX=0.5;entryY=1;entryDx=0;entryDy=0;" edge="1" parent="1" source="Ss06lq52ahwoIGu85zXp-1586" target="Ss06lq52ahwoIGu85zXp-1583">
          <mxGeometry x="31" y="106.5" width="100" height="100" as="geometry">
            <mxPoint x="1611.5" y="495" as="sourcePoint" />
            <mxPoint x="-297.5" y="141.5" as="targetPoint" />
          </mxGeometry>
        </mxCell>
        <mxCell id="Ss06lq52ahwoIGu85zXp-1586" value="Sugerencias de cuidado" style="ellipse;whiteSpace=wrap;html=1;shadow=0;fontFamily=Helvetica;fontSize=20;fontColor=#FFFFFF;align=center;strokeWidth=3;fillColor=#E85642;strokeColor=none;" vertex="1" parent="1">
          <mxGeometry x="1594.5" y="373" width="120" height="120" as="geometry" />
        </mxCell>
        <mxCell id="Ss06lq52ahwoIGu85zXp-1587" value="" style="edgeStyle=none;endArrow=none;strokeWidth=3;strokeColor=#F08E81;html=1;exitX=1;exitY=0.5;exitDx=0;exitDy=0;entryX=0;entryY=0.5;entryDx=0;entryDy=0;" edge="1" parent="1" target="1352" source="Ss06lq52ahwoIGu85zXp-1586">
          <mxGeometry x="31" y="106.5" width="100" height="100" as="geometry">
            <mxPoint x="1392.5" y="452" as="sourcePoint" />
            <mxPoint x="1659.5" y="445" as="targetPoint" />
          </mxGeometry>
        </mxCell>
        <mxCell id="Ss06lq52ahwoIGu85zXp-1598" value="Sugerencias de cuidado" style="ellipse;whiteSpace=wrap;html=1;shadow=0;fontFamily=Helvetica;fontSize=20;fontColor=#FFFFFF;align=center;strokeWidth=3;fillColor=#1699D3;strokeColor=none;" vertex="1" parent="1">
          <mxGeometry x="1807" y="870" width="120" height="120" as="geometry" />
        </mxCell>
        <mxCell id="Ss06lq52ahwoIGu85zXp-1599" value="Usuario" style="ellipse;whiteSpace=wrap;html=1;shadow=0;fontFamily=Helvetica;fontSize=20;fontColor=#FFFFFF;align=center;strokeWidth=3;fillColor=#1699D3;strokeColor=none;" vertex="1" parent="1">
          <mxGeometry x="1955.5" y="1018.5" width="120" height="120" as="geometry" />
        </mxCell>
        <mxCell id="Ss06lq52ahwoIGu85zXp-1600" value="Signos vitales" style="ellipse;whiteSpace=wrap;html=1;shadow=0;fontFamily=Helvetica;fontSize=20;fontColor=#FFFFFF;align=center;strokeWidth=3;fillColor=#736ca8;strokeColor=none;" vertex="1" parent="1">
          <mxGeometry x="1252.5" y="1433.77" width="120" height="120" as="geometry" />
        </mxCell>
        <mxCell id="Ss06lq52ahwoIGu85zXp-1601" value="DiagnÃ³stico" style="ellipse;whiteSpace=wrap;html=1;shadow=0;fontFamily=Helvetica;fontSize=20;fontColor=#FFFFFF;align=center;strokeWidth=3;fillColor=#736ca8;strokeColor=none;" vertex="1" parent="1">
          <mxGeometry x="1252.5" y="1135.27" width="120" height="120" as="geometry" />
        </mxCell>
        <mxCell id="Ss06lq52ahwoIGu85zXp-1602" value="Sugerencias de cuidado" style="ellipse;whiteSpace=wrap;html=1;shadow=0;fontFamily=Helvetica;fontSize=20;fontColor=#FFFFFF;align=center;strokeWidth=3;fillColor=#736ca8;strokeColor=none;" vertex="1" parent="1">
          <mxGeometry x="1400" y="1281.52" width="120" height="120" as="geometry" />
        </mxCell>
        <mxCell id="Ss06lq52ahwoIGu85zXp-1603" value="Ver Doctor (GET)" style="rounded=1;fillColor=#f08e81;strokeColor=none;strokeWidth=3;shadow=0;html=1;fontColor=#FFFFFF;" vertex="1" parent="1">
          <mxGeometry x="1735.5" y="80" width="120" height="40" as="geometry" />
        </mxCell>
        <mxCell id="Ss06lq52ahwoIGu85zXp-1604" value="" style="edgeStyle=none;endArrow=none;strokeWidth=3;strokeColor=#F08E81;html=1;exitX=0.5;exitY=0;exitDx=0;exitDy=0;entryX=0.5;entryY=1;entryDx=0;entryDy=0;" edge="1" parent="1" source="1352" target="Ss06lq52ahwoIGu85zXp-1603">
          <mxGeometry x="31" y="106.5" width="100" height="100" as="geometry">
            <mxPoint x="1848" y="401" as="sourcePoint" />
            <mxPoint x="1796" y="120" as="targetPoint" />
          </mxGeometry>
        </mxCell>
        <mxCell id="Ss06lq52ahwoIGu85zXp-1605" value="Ver Enfermera (GET)" style="rounded=1;fillColor=#f08e81;strokeColor=none;strokeWidth=3;shadow=0;html=1;fontColor=#FFFFFF;" vertex="1" parent="1">
          <mxGeometry x="1893" y="80" width="120" height="40" as="geometry" />
        </mxCell>
        <mxCell id="Ss06lq52ahwoIGu85zXp-1606" value="" style="edgeStyle=none;endArrow=none;strokeWidth=3;strokeColor=#F08E81;html=1;entryX=0.5;entryY=1;entryDx=0;entryDy=0;exitX=0.5;exitY=0;exitDx=0;exitDy=0;" edge="1" parent="1" source="1352" target="Ss06lq52ahwoIGu85zXp-1605">
          <mxGeometry x="31" y="106.5" width="100" height="100" as="geometry">
            <mxPoint x="1793" y="370" as="sourcePoint" />
            <mxPoint x="1806" y="130" as="targetPoint" />
          </mxGeometry>
        </mxCell>
        <mxCell id="Ss06lq52ahwoIGu85zXp-1568" value="Usuario" style="ellipse;whiteSpace=wrap;html=1;shadow=0;fontFamily=Helvetica;fontSize=20;fontColor=#FFFFFF;align=center;strokeWidth=3;fillColor=#E85642;strokeColor=none;" vertex="1" parent="1">
          <mxGeometry x="1804.5" y="218" width="120" height="120" as="geometry" />
        </mxCell>
        <mxCell id="1418" value="Actualizar (PATCH)" style="rounded=1;fillColor=#f08e81;strokeColor=none;strokeWidth=3;shadow=0;html=1;fontColor=#FFFFFF;" parent="1" vertex="1">
          <mxGeometry x="1804.5" y="155" width="120" height="40" as="geometry" />
        </mxCell>
        <mxCell id="Ss06lq52ahwoIGu85zXp-1607" value="Ver Familiar (GET)" style="rounded=1;fillColor=#f08e81;strokeColor=none;strokeWidth=3;shadow=0;html=1;fontColor=#FFFFFF;" vertex="1" parent="1">
          <mxGeometry x="1573" y="80" width="120" height="40" as="geometry" />
        </mxCell>
        <mxCell id="Ss06lq52ahwoIGu85zXp-1608" value="" style="edgeStyle=none;endArrow=none;strokeWidth=3;strokeColor=#F08E81;html=1;exitX=0.5;exitY=0;exitDx=0;exitDy=0;entryX=0.5;entryY=1;entryDx=0;entryDy=0;" edge="1" parent="1" source="1352" target="Ss06lq52ahwoIGu85zXp-1607">
          <mxGeometry x="31" y="106.5" width="100" height="100" as="geometry">
            <mxPoint x="1806" y="383" as="sourcePoint" />
            <mxPoint x="1806" y="130" as="targetPoint" />
          </mxGeometry>
        </mxCell>
        <mxCell id="Ss06lq52ahwoIGu85zXp-1564" value="Signos vitales" style="ellipse;whiteSpace=wrap;html=1;shadow=0;fontFamily=Helvetica;fontSize=20;fontColor=#FFFFFF;align=center;strokeWidth=3;fillColor=#E85642;strokeColor=none;" vertex="1" parent="1">
          <mxGeometry x="1665.5" y="218" width="120" height="120" as="geometry" />
        </mxCell>
        <mxCell id="1417" value="Registrar (POST)" style="rounded=1;fillColor=#f08e81;strokeColor=none;strokeWidth=3;shadow=0;html=1;fontColor=#FFFFFF;" parent="1" vertex="1">
          <mxGeometry x="1665.5" y="155" width="120" height="40" as="geometry" />
        </mxCell>
        <mxCell id="Ss06lq52ahwoIGu85zXp-1609" value="" style="edgeStyle=none;endArrow=none;strokeWidth=3;strokeColor=#A29DC5;html=1;exitX=0.5;exitY=1;exitDx=0;exitDy=0;entryX=0.5;entryY=0;entryDx=0;entryDy=0;" edge="1" parent="1" source="Ss06lq52ahwoIGu85zXp-1600" target="1461">
          <mxGeometry x="251" y="-103.5" width="100" height="100" as="geometry">
            <mxPoint x="1362" y="1306.77" as="sourcePoint" />
            <mxPoint x="1490" y="1163.77" as="targetPoint" />
          </mxGeometry>
        </mxCell>
        <mxCell id="Ss06lq52ahwoIGu85zXp-1610" value="Registrar (POST)" style="rounded=1;fillColor=#a29dc5;strokeColor=none;strokeWidth=3;shadow=0;html=1;fontColor=#FFFFFF;" vertex="1" parent="1">
          <mxGeometry x="1252.5" y="1060.27" width="120" height="40" as="geometry" />
        </mxCell>
        <mxCell id="Ss06lq52ahwoIGu85zXp-1611" value="" style="edgeStyle=none;endArrow=none;strokeWidth=3;strokeColor=#A29DC5;html=1;exitX=0.5;exitY=0;exitDx=0;exitDy=0;entryX=0.5;entryY=1;entryDx=0;entryDy=0;" edge="1" parent="1" source="Ss06lq52ahwoIGu85zXp-1601" target="Ss06lq52ahwoIGu85zXp-1610">
          <mxGeometry x="251" y="-103.5" width="100" height="100" as="geometry">
            <mxPoint x="1362" y="1306.77" as="sourcePoint" />
            <mxPoint x="1490" y="1163.77" as="targetPoint" />
          </mxGeometry>
        </mxCell>
        <mxCell id="Ss06lq52ahwoIGu85zXp-1612" value="Registrar (POST)" style="rounded=1;fillColor=#a29dc5;strokeColor=none;strokeWidth=3;shadow=0;html=1;fontColor=#FFFFFF;" vertex="1" parent="1">
          <mxGeometry x="1560" y="1321.52" width="120" height="40" as="geometry" />
        </mxCell>
        <mxCell id="Ss06lq52ahwoIGu85zXp-1615" value="Asisgnar a FAMILIAR A PACIENTE" style="rounded=1;fillColor=#f5af58;strokeColor=none;strokeWidth=3;shadow=0;html=1;fontColor=#FFFFFF;" vertex="1" parent="1">
          <mxGeometry x="980.5" y="271.5" width="123.5" height="40" as="geometry" />
        </mxCell>
        <mxCell id="Ss06lq52ahwoIGu85zXp-1616" value="" style="edgeStyle=none;endArrow=none;strokeWidth=3;strokeColor=#F5AF58;html=1;entryX=0;entryY=0.5;entryDx=0;entryDy=0;exitX=1;exitY=0.5;exitDx=0;exitDy=0;" edge="1" parent="1" source="Ss06lq52ahwoIGu85zXp-1550" target="Ss06lq52ahwoIGu85zXp-1615">
          <mxGeometry x="3.5" y="21.5" width="100" height="100" as="geometry">
            <mxPoint x="854.5" y="448.5" as="sourcePoint" />
            <mxPoint x="901.5" y="361.5" as="targetPoint" />
          </mxGeometry>
        </mxCell>
        <mxCell id="Ss06lq52ahwoIGu85zXp-1617" value="Signos vitales" style="ellipse;whiteSpace=wrap;html=1;shadow=0;fontFamily=Helvetica;fontSize=20;fontColor=#FFFFFF;align=center;strokeWidth=3;fillColor=#1699D3;strokeColor=none;" vertex="1" parent="1">
          <mxGeometry x="1805.5" y="1172.5" width="120" height="120" as="geometry" />
        </mxCell>
        <mxCell id="Ss06lq52ahwoIGu85zXp-1618" value="" style="edgeStyle=none;endArrow=none;strokeWidth=3;strokeColor=#64BBE2;html=1;exitX=0.5;exitY=1;exitDx=0;exitDy=0;entryX=0.5;entryY=0;entryDx=0;entryDy=0;" edge="1" parent="1" source="1353" target="Ss06lq52ahwoIGu85zXp-1617">
          <mxGeometry x="-24" y="196.5" width="100" height="100" as="geometry">
            <mxPoint x="1935.5" y="1089" as="sourcePoint" />
            <mxPoint x="1965.5" y="1089" as="targetPoint" />
          </mxGeometry>
        </mxCell>
        <mxCell id="Ss06lq52ahwoIGu85zXp-1619" value="Registrar (POST)" style="rounded=1;fillColor=#64BBE2;strokeColor=none;strokeWidth=3;shadow=0;html=1;fontColor=#FFFFFF;" vertex="1" parent="1">
          <mxGeometry x="1805.5" y="1327" width="120" height="40" as="geometry" />
        </mxCell>
        <mxCell id="Ss06lq52ahwoIGu85zXp-1620" value="" style="edgeStyle=none;endArrow=none;strokeWidth=3;strokeColor=#64BBE2;html=1;exitX=0.5;exitY=1;exitDx=0;exitDy=0;entryX=0.5;entryY=0;entryDx=0;entryDy=0;" edge="1" parent="1" source="Ss06lq52ahwoIGu85zXp-1617" target="Ss06lq52ahwoIGu85zXp-1619">
          <mxGeometry x="-24" y="196.5" width="100" height="100" as="geometry">
            <mxPoint x="1875.5" y="1149" as="sourcePoint" />
            <mxPoint x="1875.5" y="1183" as="targetPoint" />
          </mxGeometry>
        </mxCell>
        <mxCell id="Ss06lq52ahwoIGu85zXp-1621" value="Paciente" style="ellipse;whiteSpace=wrap;html=1;shadow=0;fontFamily=Helvetica;fontSize=20;fontColor=#FFFFFF;align=center;strokeWidth=3;fillColor=#736ca8;strokeColor=none;" vertex="1" parent="1">
          <mxGeometry x="1110" y="1281.52" width="120" height="120" as="geometry" />
        </mxCell>
        <mxCell id="Ss06lq52ahwoIGu85zXp-1622" value="" style="edgeStyle=none;endArrow=none;strokeWidth=3;strokeColor=#A29DC5;html=1;entryX=1;entryY=0.5;entryDx=0;entryDy=0;exitX=0;exitY=0.5;exitDx=0;exitDy=0;" edge="1" parent="1" source="1354" target="Ss06lq52ahwoIGu85zXp-1621">
          <mxGeometry x="251" y="-103.5" width="100" height="100" as="geometry">
            <mxPoint x="1383" y="1351.77" as="sourcePoint" />
            <mxPoint x="1410" y="1351.77" as="targetPoint" />
          </mxGeometry>
        </mxCell>
        <mxCell id="Ss06lq52ahwoIGu85zXp-1623" value="Ver (GET)" style="rounded=1;fillColor=#a29dc5;strokeColor=none;strokeWidth=3;shadow=0;html=1;fontColor=#FFFFFF;" vertex="1" parent="1">
          <mxGeometry x="960" y="1321.52" width="120" height="40" as="geometry" />
        </mxCell>
        <mxCell id="Ss06lq52ahwoIGu85zXp-1624" value="" style="edgeStyle=none;endArrow=none;strokeWidth=3;strokeColor=#A29DC5;html=1;entryX=0;entryY=0.5;entryDx=0;entryDy=0;exitX=1;exitY=0.5;exitDx=0;exitDy=0;" edge="1" parent="1" source="Ss06lq52ahwoIGu85zXp-1623" target="Ss06lq52ahwoIGu85zXp-1621">
          <mxGeometry x="251" y="-103.5" width="100" height="100" as="geometry">
            <mxPoint x="1263" y="1351.77" as="sourcePoint" />
            <mxPoint x="1240" y="1351.77" as="targetPoint" />
          </mxGeometry>
        </mxCell>
        <mxCell id="Ss06lq52ahwoIGu85zXp-1625" value="Login" style="rounded=1;fillColor=#a29dc5;strokeColor=none;strokeWidth=3;shadow=0;html=1;fontColor=#FFFFFF;" vertex="1" parent="1">
          <mxGeometry x="253" y="1121.5" width="120" height="40" as="geometry" />
        </mxCell>
        <mxCell id="Ss06lq52ahwoIGu85zXp-1626" value="Ver (GET)" style="rounded=1;fillColor=#a29dc5;strokeColor=none;strokeWidth=3;shadow=0;html=1;fontColor=#FFFFFF;" vertex="1" parent="1">
          <mxGeometry x="1381.5" y="1547.27" width="120" height="40" as="geometry" />
        </mxCell>
        <mxCell id="Ss06lq52ahwoIGu85zXp-1627" value="" style="edgeStyle=none;endArrow=none;strokeWidth=3;strokeColor=#A29DC5;html=1;exitX=1;exitY=1;exitDx=0;exitDy=0;entryX=0;entryY=0.5;entryDx=0;entryDy=0;" edge="1" parent="1" source="Ss06lq52ahwoIGu85zXp-1600" target="Ss06lq52ahwoIGu85zXp-1626">
          <mxGeometry x="251" y="-103.5" width="100" height="100" as="geometry">
            <mxPoint x="1323" y="1563.77" as="sourcePoint" />
            <mxPoint x="1323" y="1603.77" as="targetPoint" />
          </mxGeometry>
        </mxCell>
        <mxCell id="Ss06lq52ahwoIGu85zXp-1629" value="Historia clÃ­nica" style="ellipse;whiteSpace=wrap;html=1;shadow=0;fontFamily=Helvetica;fontSize=20;fontColor=#FFFFFF;align=center;strokeWidth=3;fillColor=#736ca8;strokeColor=none;" vertex="1" parent="1">
          <mxGeometry x="1390" y="1414.77" width="120" height="120" as="geometry" />
        </mxCell>
        <mxCell id="Ss06lq52ahwoIGu85zXp-1630" value="" style="edgeStyle=none;endArrow=none;strokeWidth=3;strokeColor=#A29DC5;html=1;entryX=0;entryY=0;entryDx=0;entryDy=0;exitX=1;exitY=1;exitDx=0;exitDy=0;" edge="1" parent="1" source="1354" target="Ss06lq52ahwoIGu85zXp-1629">
          <mxGeometry x="251" y="-103.5" width="100" height="100" as="geometry">
            <mxPoint x="1383" y="1351.77" as="sourcePoint" />
            <mxPoint x="1410" y="1351.77" as="targetPoint" />
          </mxGeometry>
        </mxCell>
        <mxCell id="Ss06lq52ahwoIGu85zXp-1631" value="Ver (GET)" style="rounded=1;fillColor=#a29dc5;strokeColor=none;strokeWidth=3;shadow=0;html=1;fontColor=#FFFFFF;" vertex="1" parent="1">
          <mxGeometry x="1532.5" y="1507.27" width="120" height="40" as="geometry" />
        </mxCell>
        <mxCell id="Ss06lq52ahwoIGu85zXp-1632" value="" style="edgeStyle=none;endArrow=none;strokeWidth=3;strokeColor=#A29DC5;html=1;entryX=0;entryY=0.5;entryDx=0;entryDy=0;exitX=1;exitY=1;exitDx=0;exitDy=0;" edge="1" parent="1" source="Ss06lq52ahwoIGu85zXp-1629" target="Ss06lq52ahwoIGu85zXp-1631">
          <mxGeometry x="251" y="-103.5" width="100" height="100" as="geometry">
            <mxPoint x="1365" y="1393.77" as="sourcePoint" />
            <mxPoint x="1418" y="1442.77" as="targetPoint" />
          </mxGeometry>
        </mxCell>
        <mxCell id="Ss06lq52ahwoIGu85zXp-1633" value="Ver (GET)" style="rounded=1;fillColor=#a29dc5;strokeColor=none;strokeWidth=3;shadow=0;html=1;fontColor=#FFFFFF;" vertex="1" parent="1">
          <mxGeometry x="1560" y="1380.77" width="120" height="40" as="geometry" />
        </mxCell>
        <mxCell id="Ss06lq52ahwoIGu85zXp-1634" value="" style="edgeStyle=none;endArrow=none;strokeWidth=3;strokeColor=#A29DC5;html=1;exitX=1;exitY=0.5;exitDx=0;exitDy=0;entryX=0;entryY=0.5;entryDx=0;entryDy=0;" edge="1" parent="1" source="Ss06lq52ahwoIGu85zXp-1602" target="Ss06lq52ahwoIGu85zXp-1633">
          <mxGeometry x="251" y="-103.5" width="100" height="100" as="geometry">
            <mxPoint x="1530" y="1351.77" as="sourcePoint" />
            <mxPoint x="1570" y="1351.77" as="targetPoint" />
          </mxGeometry>
        </mxCell>
        <mxCell id="Ss06lq52ahwoIGu85zXp-1635" value="Actualizar (PATCH)" style="rounded=1;fillColor=#a29dc5;strokeColor=none;strokeWidth=3;shadow=0;html=1;fontColor=#FFFFFF;" vertex="1" parent="1">
          <mxGeometry x="1122.5" y="1095.27" width="120" height="40" as="geometry" />
        </mxCell>
        <mxCell id="Ss06lq52ahwoIGu85zXp-1636" value="" style="edgeStyle=none;endArrow=none;strokeWidth=3;strokeColor=#A29DC5;html=1;exitX=0;exitY=0;exitDx=0;exitDy=0;entryX=0.5;entryY=1;entryDx=0;entryDy=0;" edge="1" parent="1" source="Ss06lq52ahwoIGu85zXp-1601" target="Ss06lq52ahwoIGu85zXp-1635">
          <mxGeometry x="251" y="-103.5" width="100" height="100" as="geometry">
            <mxPoint x="1323" y="1145.77" as="sourcePoint" />
            <mxPoint x="1323" y="1110.77" as="targetPoint" />
          </mxGeometry>
        </mxCell>
        <mxCell id="Ss06lq52ahwoIGu85zXp-1637" value="Recibir correo de nueva sugerencia" style="rounded=1;fillColor=#64BBE2;strokeColor=none;strokeWidth=3;shadow=0;html=1;fontColor=#FFFFFF;" vertex="1" parent="1">
          <mxGeometry x="1965.5" y="910" width="120" height="40" as="geometry" />
        </mxCell>
        <mxCell id="Ss06lq52ahwoIGu85zXp-1638" value="" style="edgeStyle=none;endArrow=none;strokeWidth=3;strokeColor=#64BBE2;html=1;exitX=1;exitY=0.5;exitDx=0;exitDy=0;entryX=0;entryY=0.5;entryDx=0;entryDy=0;" edge="1" parent="1" source="Ss06lq52ahwoIGu85zXp-1598" target="Ss06lq52ahwoIGu85zXp-1637">
          <mxGeometry x="-24" y="196.5" width="100" height="100" as="geometry">
            <mxPoint x="1877.5" y="880" as="sourcePoint" />
            <mxPoint x="1877.5" y="850" as="targetPoint" />
          </mxGeometry>
        </mxCell>
      </root>
    </mxGraphModel>
  </diagram>
</mxfile>
